{
  "accessors": [
      {
          "bufferView": 0,
          "componentType": 5123,
          "count": 36,
          "type": "SCALAR"
      },
      {
          "bufferView": 1,
          "componentType": 5126,
          "count": 8,
          "type": "VEC3",
          "max": [
              20,
              10,
              10
          ],
          "min": [
              0,
              0,
              0
          ]
      },
      {
          "bufferView": 2,
          "componentType": 5121,
          "normalized": true,
          "count": 8,
          "type": "VEC3"
      }
  ],
  "asset": {
      "generator": "qmuntal/gltf",
      "version": "2.0"
  },
  "buffers": [
      {
          "uri": "data:application/octet-stream;base64,",
          "byteLength": 200
      }
  ],
  "bufferViews": [
      {
          "buffer": 0,
          "byteLength": 72,
          "target": 34963
      },
      {
          "buffer": 0,
          "byteOffset": 72,
          "byteLength": 96,
          "target": 34962
      },
      {
          "buffer": 0,
          "byteOffset": 168,
          "byteLength": 32,
          "byteStride": 4,
          "target": 34962
      }
  ],
  "materials": [
      {
          "name": "Custom1MaterialGLTF",
          "pbrMetallicRoughness": {
              "baseColorFactor": [
                  0.8,
                  0.8,
                  0.8,
                  1
              ],
              "metallicFactor": 0.1,
              "roughnessFactor": 0.99
          }
      }
  ],
  "meshes": [
      {
          "name": "Pyramid",
          "primitives": [
              {
                  "attributes": {
                      "COLOR_0": 2,
                      "POSITION": 1
                  },
                  "indices": 0
              }
          ]
      }
  ],
  "nodes": [
      {
          "name": "Root",
          "children": [
              1,
              2,
              3
          ]
      },
      {
          "name": "Mesh Custom"
      },
      {
          "name": "Cube",
          "mesh": 0
      },
      {
          "name": "Texture Group Custom"
      }
  ],
  "samplers": [
      {}
  ],
  "scene": 0,
  "scenes": [
      {
          "name": "Root Scene",
          "nodes": [
              0
          ]
      }
  ],
  "textures": [
      {
          "sampler": 0,
          "source": 0
      }
  ]
}